{
    "asset" : {
        "copyright" : "avrsandbox-Serial4j",
        "generator" : "Khronos glTF Blender I/O v1.2.75",
        "version" : "2.0"
    },
    "scene" : 0,
    "scenes" : [
        {
            "name" : "Scene",
            "nodes" : [
                0,
                1
            ]
        }
    ],
    "nodes" : [
        {
            "mesh" : 0,
            "name" : "Cylinder",
            "rotation" : [
                0,
                0,
                -0.7071067690849304,
                0.7071068286895752
            ],
            "scale" : [
                1,
                0.30000001192092896,
                1
            ]
        },
        {
            "mesh" : 1,
            "name" : "Cylinder.001",
            "rotation" : [
                0,
                0,
                -0.7071067690849304,
                0.7071068286895752
            ],
            "scale" : [
                1,
                0.30000001192092896,
                1
            ]
        }
    ],
    "meshes" : [
        {
            "name" : "tyre",
            "primitives" : [
                {
                    "attributes" : {
                        "POSITION" : 0,
                        "NORMAL" : 1,
                        "TEXCOORD_0" : 2
                    },
                    "indices" : 3
                }
            ]
        },
        {
            "name" : "steel",
            "primitives" : [
                {
                    "attributes" : {
                        "POSITION" : 4,
                        "NORMAL" : 5,
                        "TEXCOORD_0" : 6
                    },
                    "indices" : 7
                }
            ]
        }
    ],
    "accessors" : [
        {
            "bufferView" : 0,
            "componentType" : 5126,
            "count" : 3359,
            "max" : [
                1,
                1,
                1
            ],
            "min" : [
                -1,
                -1,
                -1
            ],
            "type" : "VEC3"
        },
        {
            "bufferView" : 1,
            "componentType" : 5126,
            "count" : 3359,
            "type" : "VEC3"
        },
        {
            "bufferView" : 2,
            "componentType" : 5126,
            "count" : 3359,
            "type" : "VEC2"
        },
        {
            "bufferView" : 3,
            "componentType" : 5123,
            "count" : 5583,
            "type" : "SCALAR"
        },
        {
            "bufferView" : 4,
            "componentType" : 5126,
            "count" : 976,
            "max" : [
                0.7385034561157227,
                1.100000023841858,
                0.7358157634735107
            ],
            "min" : [
                -0.7358158230781555,
                0.800000011920929,
                -0.7358158826828003
            ],
            "type" : "VEC3"
        },
        {
            "bufferView" : 5,
            "componentType" : 5126,
            "count" : 976,
            "type" : "VEC3"
        },
        {
            "bufferView" : 6,
            "componentType" : 5126,
            "count" : 976,
            "type" : "VEC2"
        },
        {
            "bufferView" : 7,
            "componentType" : 5123,
            "count" : 1644,
            "type" : "SCALAR"
        }
    ],
    "bufferViews" : [
        {
            "buffer" : 0,
            "byteLength" : 40308,
            "byteOffset" : 0
        },
        {
            "buffer" : 0,
            "byteLength" : 40308,
            "byteOffset" : 40308
        },
        {
            "buffer" : 0,
            "byteLength" : 26872,
            "byteOffset" : 80616
        },
        {
            "buffer" : 0,
            "byteLength" : 11166,
            "byteOffset" : 107488
        },
        {
            "buffer" : 0,
            "byteLength" : 11712,
            "byteOffset" : 118656
        },
        {
            "buffer" : 0,
            "byteLength" : 11712,
            "byteOffset" : 130368
        },
        {
            "buffer" : 0,
            "byteLength" : 7808,
            "byteOffset" : 142080
        },
        {
            "buffer" : 0,
            "byteLength" : 3288,
            "byteOffset" : 149888
        }
    ],
    "buffers" : [
        {
            "byteLength" : 153176,
            "uri" : "data:application/octet-stream;base64,"
        }
    ]
}
